<?xml version="1.0" encoding="iso-8859-1"?>
<!-- Generator: Adobe Illustrator 19.1.0, SVG Export Plug-In . SVG Version: 6.00 Build 0)  -->
<svg version="1.1" id="Capa_1" xmlns="http://www.w3.org/2000/svg" xmlns:xlink="http://www.w3.org/1999/xlink" x="0px" y="0px"
	 viewBox="0 0 62.421 62.421" style="enable-background:new 0 0 62.421 62.421;" xml:space="preserve">
<g>
	<g id="group-16svg">
		<path id="path-1_7_" style="fill:#81BDA4;" d="M43.155,8.966c8.614,8.619,8.614,22.595,0,31.214c-8.613,8.62-22.578,8.62-31.191,0
			c-8.613-8.619-8.613-22.595,0-31.214S34.542,0.347,43.155,8.966z"/>
		<path id="path-2_7_" style="fill:var(--palette-btn-main);opacity:0.2;" d="M37.795,14.331c5.652,5.657,5.652,14.828,0,20.484
			c-5.653,5.657-14.818,5.657-20.471,0c-5.652-5.656-5.652-14.827,0-20.484C22.977,8.674,32.142,8.674,37.795,14.331z"/>
		<path id="path-3_7_" d="M23.56,47.145c-6.292,0-12.208-2.452-16.657-6.904c-9.184-9.191-9.184-24.146,0-33.337
			C11.352,2.452,17.268,0,23.56,0s12.207,2.452,16.656,6.904c9.184,9.191,9.184,24.146,0,33.337
			C35.767,44.693,29.852,47.145,23.56,47.145z M23.56,3.002c-5.491,0-10.653,2.14-14.536,6.025c-8.014,8.021-8.014,21.07,0,29.091
			c3.883,3.885,9.045,6.025,14.536,6.025c5.49,0,10.652-2.14,14.535-6.025c8.014-8.021,8.014-21.07,0-29.091
			C34.212,5.142,29.05,3.002,23.56,3.002z"/>
		<path id="path-4_7_" d="M23.56,39.559c-4.267,0-8.279-1.663-11.296-4.683c-6.228-6.233-6.228-16.374,0-22.607
			c3.017-3.019,7.029-4.682,11.296-4.682s8.278,1.663,11.295,4.682c3.018,3.019,4.679,7.034,4.679,11.304
			c0,4.269-1.661,8.284-4.679,11.303C31.838,37.896,27.827,39.559,23.56,39.559z M23.56,10.589c-3.466,0-6.725,1.35-9.175,3.802
			c-5.059,5.063-5.059,13.3,0,18.362c2.45,2.453,5.709,3.803,9.175,3.803c3.465,0,6.723-1.35,9.174-3.803
			c2.451-2.452,3.8-5.713,3.8-9.18c0-3.469-1.349-6.729-3.8-9.182C30.283,11.939,27.025,10.589,23.56,10.589z"/>
		<path id="path-5_7_" d="M59.406,62.421c-0.768,0-1.536-0.293-2.121-0.879L42.589,46.836c-1.172-1.173-1.172-3.074,0-4.246
			c1.171-1.173,3.072-1.172,4.242,0l14.696,14.706c1.172,1.173,1.172,3.074,0,4.246C60.941,62.128,60.173,62.421,59.406,62.421z"/>
	</g>
</g>
<g>
</g>
<g>
</g>
<g>
</g>
<g>
</g>
<g>
</g>
<g>
</g>
<g>
</g>
<g>
</g>
<g>
</g>
<g>
</g>
<g>
</g>
<g>
</g>
<g>
</g>
<g>
</g>
<g>
</g>
</svg>
